<?xml version="1.0" standalone="no"?>
<!DOCTYPE svg PUBLIC "-//W3C//DTD SVG 20010904//EN"
 "http://www.w3.org/TR/2001/REC-SVG-20010904/DTD/svg10.dtd">
<svg version="1.0" xmlns="http://www.w3.org/2000/svg"
 width="512.000000pt" height="512.000000pt" viewBox="0 0 512.000000 512.000000"
 preserveAspectRatio="xMidYMid meet">
<metadata>
Created by potrace 1.11, written by Peter Selinger 2001-2013
</metadata>
<g transform="translate(0.000000,512.000000) scale(0.100000,-0.100000)"
fill="#000000" stroke="none">
<path d="M693 5102 c-84 -46 -97 -105 -55 -252 72 -248 131 -504 167 -725 2
-11 7 -38 10 -60 4 -22 8 -51 10 -65 6 -56 16 -126 20 -140 2 -8 9 -69 15
-135 6 -66 13 -140 15 -165 3 -25 7 -85 10 -135 7 -95 24 -145 59 -173 13 -9
68 -32 124 -51 56 -19 102 -37 102 -40 0 -3 -43 -21 -95 -39 -129 -46 -159
-71 -170 -144 -2 -18 -7 -116 -10 -218 -6 -210 -12 -304 -31 -475 -4 -33 -8
-71 -9 -85 -3 -28 -13 -93 -20 -130 -2 -13 -7 -46 -10 -74 -3 -28 -15 -94 -27
-146 -11 -52 -22 -106 -24 -120 -7 -36 -50 -205 -91 -354 -19 -70 -36 -135
-37 -144 -4 -23 -19 -25 -83 -11 -32 7 -64 14 -71 15 -24 4 -137 63 -159 83
-13 10 -23 29 -23 41 0 34 -30 88 -60 110 -43 31 -117 33 -166 7 -56 -32 -77
-77 -70 -155 13 -155 142 -283 364 -358 121 -41 204 -55 357 -59 236 -6 413
38 601 150 31 18 31 18 67 -9 101 -77 317 -135 522 -141 241 -7 447 44 609
150 24 16 27 16 55 -4 50 -36 172 -89 251 -110 308 -81 696 -32 891 111 l27
20 68 -41 c73 -44 147 -75 234 -96 90 -23 110 -26 236 -32 390 -19 732 131
799 351 44 144 -11 241 -135 241 -65 0 -101 -19 -130 -68 -11 -18 -20 -44 -20
-59 0 -33 -43 -71 -118 -104 -54 -24 -168 -52 -176 -43 -3 2 -6 81 -7 175 -15
1056 -451 2021 -1239 2744 -644 590 -1524 949 -2397 975 -127 4 -152 2 -180
-13z"/>
<path d="M115 592 c-38 -8 -84 -52 -96 -91 -46 -152 90 -335 314 -421 146 -57
258 -75 457 -74 213 1 380 46 538 145 l32 21 48 -31 c46 -29 173 -86 216 -96
240 -56 477 -55 681 5 74 21 182 70 227 103 26 19 27 19 55 0 209 -148 607
-195 911 -107 83 24 184 70 232 105 l26 20 79 -46 c152 -86 293 -120 510 -120
168 0 216 5 326 34 268 69 425 210 436 390 5 74 -13 115 -63 148 -37 24 -131
24 -168 0 -35 -23 -66 -74 -66 -109 0 -74 -198 -154 -404 -162 -251 -10 -481
67 -497 166 -7 44 -31 82 -66 105 -36 24 -130 24 -167 0 -35 -23 -66 -74 -66
-109 0 -76 -198 -154 -414 -163 -118 -4 -211 8 -315 41 -106 35 -164 76 -172
126 -15 95 -98 145 -196 119 -51 -14 -91 -59 -99 -112 -9 -52 -41 -82 -127
-118 -198 -82 -513 -76 -684 13 -65 34 -93 60 -93 85 0 37 -26 87 -56 108 -91
63 -224 15 -240 -87 -8 -48 -29 -72 -94 -105 -97 -50 -202 -70 -355 -70 -165
1 -251 17 -360 70 -74 35 -84 47 -104 122 -19 71 -103 114 -186 95z"/>
</g>
</svg>
